<svg id="visual" viewBox="0 0 960 540" width="100%" height="100%" x="0px" y="0px" xmlns="http://www.w3.org/2000/svg" xmlns:xlink="http://www.w3.org/1999/xlink" version="1.1"><path d="M0 13L22.8 13.2C45.7 13.3 91.3 13.7 137 15.7C182.7 17.7 228.3 21.3 274 23C319.7 24.7 365.3 24.3 411.2 23.8C457 23.3 503 22.7 548.8 25C594.7 27.3 640.3 32.7 686 34.3C731.7 36 777.3 34 823 32.7C868.7 31.3 914.3 30.7 937.2 30.3L960 30L960 0L937.2 0C914.3 0 868.7 0 823 0C777.3 0 731.7 0 686 0C640.3 0 594.7 0 548.8 0C503 0 457 0 411.2 0C365.3 0 319.7 0 274 0C228.3 0 182.7 0 137 0C91.3 0 45.7 0 22.8 0L0 0Z" fill="#2450c7" stroke-linecap="round" stroke-linejoin="miter"></path></svg>